<svg width="49" height="40" viewBox="0 0 49 40" fill="none" xmlns="http://www.w3.org/2000/svg">
<path d="M16.9335 34.2441V32.3042C16.9564 31.975 16.8364 31.6519 16.6044 31.4173C16.3723 31.1827 16.0504 31.0594 15.721 31.0788C15.2858 31.0502 14.8695 31.2609 14.6347 31.6284C14.4206 31.2718 14.0285 31.0609 13.613 31.0788C13.2511 31.0605 12.9067 31.2352 12.7077 31.5379V31.1564H12.0352V34.2441H12.7141V32.5337C12.6837 32.3195 12.751 32.1029 12.8977 31.9437C13.0443 31.7845 13.2547 31.6997 13.4707 31.7125C13.9169 31.7125 14.1432 32.0035 14.1432 32.5273V34.2441H14.8222V32.5337C14.7941 32.32 14.8624 32.1048 15.0084 31.9462C15.1545 31.7876 15.3634 31.702 15.5788 31.7125C16.0379 31.7125 16.2577 32.0035 16.2577 32.5273V34.2441H16.9335ZM20.7163 32.7019V31.1596H20.0374V31.5347C19.806 31.2361 19.4448 31.0676 19.0674 31.082C18.1746 31.082 17.4508 31.8058 17.4508 32.6986C17.4508 33.5915 18.1746 34.3152 19.0674 34.3152C19.4448 34.3297 19.806 34.1611 20.0374 33.8626V34.2376H20.7099L20.7163 32.7019ZM18.2171 32.7019C18.247 32.1945 18.677 31.804 19.1849 31.8231C19.6928 31.8422 20.0923 32.2637 20.0841 32.7719C20.0759 33.2801 19.663 33.6886 19.1547 33.6912C18.8945 33.6973 18.6437 33.5935 18.464 33.4052C18.2843 33.2168 18.1923 32.9615 18.2106 32.7019H18.2171ZM35.0847 31.0853C35.3061 31.0847 35.5256 31.1264 35.7314 31.2081C35.9278 31.2868 36.1068 31.4032 36.2584 31.5508C36.408 31.6971 36.5267 31.8719 36.6076 32.0649C36.7765 32.4795 36.7765 32.9437 36.6076 33.3582C36.5268 33.5512 36.4081 33.726 36.2584 33.8723C36.1068 34.0199 35.9278 34.1363 35.7314 34.215C35.305 34.3807 34.8321 34.3807 34.4058 34.215C34.2103 34.1364 34.0323 34.0199 33.882 33.8723C33.7338 33.7255 33.6162 33.5507 33.536 33.3582C33.3675 32.9436 33.3675 32.4795 33.536 32.0649C33.6162 31.8724 33.7338 31.6976 33.882 31.5508C34.0323 31.4032 34.2103 31.2867 34.4058 31.2081C34.6189 31.1198 34.8475 31.0747 35.0783 31.0756L35.0847 31.0853ZM35.0847 31.7319C34.9531 31.7301 34.8223 31.7543 34.7 31.803C34.5848 31.8492 34.4802 31.9185 34.3928 32.0067C34.3037 32.0995 34.2344 32.2095 34.1891 32.33C34.0904 32.5882 34.0904 32.8737 34.1891 33.1319C34.2343 33.2524 34.3036 33.3624 34.3928 33.4552C34.4802 33.5434 34.5847 33.6128 34.7 33.6589C34.9463 33.7553 35.2199 33.7553 35.4663 33.6589C35.587 33.6142 35.6972 33.5449 35.7896 33.4552C35.879 33.3625 35.9483 33.2525 35.9933 33.1319C36.092 32.8737 36.092 32.5882 35.9933 32.33C35.9483 32.2094 35.879 32.0994 35.7896 32.0067C35.6972 31.917 35.587 31.8477 35.4663 31.803C35.3443 31.7472 35.2124 31.7164 35.0783 31.7125L35.0847 31.7319ZM24.3699 32.7019C24.3699 31.7319 23.7685 31.0853 22.9052 31.0853C22.0124 31.0978 21.2987 31.8317 21.3112 32.7245C21.3237 33.6173 22.0577 34.331 22.9505 34.3185C23.4108 34.3342 23.8608 34.18 24.2147 33.8852L23.8914 33.3873C23.636 33.5921 23.3198 33.7058 22.9925 33.7106C22.5303 33.7504 22.1204 33.415 22.0678 32.954H24.3602C24.3699 32.8732 24.3699 32.7924 24.3699 32.7019ZM22.0711 32.4303C22.097 32.0037 22.4554 31.6739 22.8826 31.6834C23.0858 31.6791 23.2825 31.7557 23.4292 31.8963C23.576 32.037 23.6608 32.2303 23.665 32.4335L22.0711 32.4303ZM27.1989 31.9453C26.9037 31.7753 26.5697 31.684 26.229 31.6802C25.8604 31.6802 25.6405 31.816 25.6405 32.0423C25.6405 32.2686 25.8733 32.3074 26.1643 32.3462L26.4876 32.3915C27.1601 32.4885 27.5675 32.773 27.5675 33.3162C27.5675 33.8593 27.0502 34.3249 26.1611 34.3249C25.6845 34.3376 25.2165 34.1971 24.8258 33.924L25.1491 33.4002C25.4458 33.6204 25.8079 33.7342 26.1772 33.7236C26.6364 33.7236 26.8821 33.5878 26.8821 33.3485C26.8821 33.1739 26.7075 33.0769 26.3389 33.0252L26.0156 32.9799C25.3237 32.8829 24.9486 32.5725 24.9486 32.0681C24.9486 31.4538 25.453 31.0788 26.2419 31.0788C26.6834 31.064 27.12 31.1762 27.4996 31.4021L27.1989 31.9453ZM30.4321 31.7707H29.3361V33.1642C29.3361 33.4875 29.446 33.6815 29.7823 33.6815C29.9921 33.6746 30.1968 33.6145 30.3772 33.5069L30.5712 34.0824C30.3191 34.2398 30.0277 34.3227 29.7305 34.3217C28.9352 34.3217 28.6571 33.8949 28.6571 33.1771V31.7707H28.0299V31.1564H28.6571V30.2188H29.3361V31.1564H30.4321V31.7707ZM32.7568 31.0788C32.9199 31.0794 33.0818 31.1078 33.2353 31.1628L33.0284 31.8095C32.8948 31.7562 32.7519 31.7298 32.6081 31.7319C32.1684 31.7319 31.9615 32.0164 31.9615 32.5273V34.257H31.2889V31.1693H31.955V31.5444C32.1231 31.2556 32.4357 31.0819 32.7698 31.0917L32.7568 31.0788ZM37.4062 33.7947C37.4482 33.7942 37.49 33.8019 37.529 33.8173C37.5662 33.8325 37.6002 33.8544 37.6293 33.882C37.6577 33.9099 37.6807 33.9427 37.6972 33.979C37.7303 34.0553 37.7303 34.1419 37.6972 34.2182C37.6807 34.2545 37.6577 34.2874 37.6293 34.3152C37.6002 34.3428 37.5662 34.3647 37.529 34.3799C37.4903 34.397 37.4485 34.4058 37.4062 34.4058C37.2811 34.4048 37.1677 34.3318 37.1152 34.2182C37.0825 34.1418 37.0825 34.0554 37.1152 33.979C37.1317 33.9427 37.1547 33.9099 37.1831 33.882C37.2122 33.8544 37.2462 33.8325 37.2833 33.8173C37.3174 33.8038 37.3534 33.7961 37.39 33.7947H37.4062ZM37.4062 34.3411C37.4385 34.3413 37.4704 34.3347 37.4999 34.3217C37.5278 34.3093 37.553 34.2917 37.5743 34.27C37.63 34.2139 37.6544 34.134 37.6395 34.0564C37.6246 33.9787 37.5724 33.9135 37.4999 33.882C37.4704 33.8691 37.4384 33.8625 37.4062 33.8626C37.374 33.8628 37.3421 33.8693 37.3124 33.882C37.2834 33.8939 37.257 33.9115 37.2348 33.9337C37.151 34.0252 37.151 34.1656 37.2348 34.257C37.2801 34.3028 37.3418 34.3285 37.4062 34.3282V34.3411ZM37.4256 33.9563C37.4558 33.9549 37.4855 33.964 37.5096 33.9822C37.5297 33.9988 37.5406 34.0241 37.5387 34.0501C37.5397 34.0718 37.5315 34.0929 37.5161 34.1083C37.4974 34.1253 37.4735 34.1356 37.4482 34.1374L37.542 34.2441H37.4676L37.3803 34.1374H37.3512V34.2441H37.2898V33.9466L37.4256 33.9563ZM37.3545 34.0113V34.0889H37.4256C37.4382 34.0927 37.4517 34.0927 37.4644 34.0889C37.469 34.0798 37.469 34.069 37.4644 34.0598C37.469 34.0507 37.469 34.0399 37.4644 34.0307C37.4517 34.0269 37.4382 34.0269 37.4256 34.0307L37.3545 34.0113Z" fill="#A3A1A7"/>
<path d="M29.462 7.59912H19.2773V25.9023H29.462V7.59912Z" fill="#7673C0"/>
<path d="M19.9232 16.7527C19.9194 13.1805 21.5589 9.80502 24.3689 7.59947C19.5966 3.84896 12.7434 4.39525 8.62553 8.85443C4.50767 13.3136 4.50767 20.1886 8.62553 24.6477C12.7434 29.1069 19.5966 29.6532 24.3689 25.9027C21.5597 23.6978 19.9204 20.3238 19.9232 16.7527Z" fill="#EB001B"/>
<path d="M42.0901 23.9627V23.6005H42.2421V23.5229H41.8573V23.6005H42.0093V23.9756L42.0901 23.9627ZM42.837 23.9627V23.51H42.7206L42.5848 23.8333L42.449 23.51H42.3294V23.9627H42.4134V23.6232L42.5395 23.9174H42.6268L42.7529 23.6232V23.9659L42.837 23.9627Z" fill="#00A1DF"/>
<path d="M43.1994 16.7525C43.1983 21.2078 40.6542 25.2715 36.6469 27.2187C32.6397 29.1659 27.8725 28.6549 24.3691 25.9025C27.1771 23.6958 28.8165 20.3222 28.8165 16.7509C28.8165 13.1796 27.1771 9.80599 24.3691 7.59926C27.8725 4.84492 32.641 4.3327 36.6495 6.28015C40.6579 8.22759 43.2025 12.2928 43.2026 16.7493L43.1994 16.7525Z" fill="#00A1DF"/>
</svg>
