<svg width="45" height="30" viewBox="0 0 45 30" fill="none" xmlns="http://www.w3.org/2000/svg">
<path d="M28.2237 5.10938H16.5273V24.213H28.2237V5.10938Z" fill="#FF5F00"/>
<path d="M17.7301 14.6625C17.7286 12.823 18.1456 11.0073 18.9495 9.35272C19.7534 7.69816 20.9231 6.24814 22.3701 5.11239C20.5779 3.7039 18.4256 2.82805 16.1592 2.58493C13.8927 2.34181 11.6036 2.74123 9.55343 3.73755C7.50326 4.73387 5.77474 6.28688 4.56544 8.2191C3.35614 10.1513 2.71484 12.3848 2.71484 14.6642C2.71484 16.9437 3.35614 19.1771 4.56544 21.1093C5.77474 23.0416 7.50326 24.5946 9.55343 25.5909C11.6036 26.5872 13.8927 26.9866 16.1592 26.7435C18.4256 26.5004 20.5779 25.6245 22.3701 24.216C20.9227 23.0799 19.7527 21.6294 18.9488 19.9742C18.1449 18.319 17.7281 16.5026 17.7301 14.6625Z" fill="#EB001B"/>
<path d="M42.028 14.6629C42.028 16.9425 41.3865 19.1761 40.177 21.1084C38.9675 23.0407 37.2387 24.5937 35.1883 25.5899C33.1378 26.586 30.8485 26.9852 28.5819 26.7417C26.3154 26.4983 24.163 25.622 22.3709 24.2131C23.8174 23.0763 24.9868 21.6259 25.7909 19.9712C26.595 18.3166 27.0128 16.5009 27.0128 14.6612C27.0128 12.8215 26.595 11.0059 25.7909 9.35123C24.9868 7.69658 23.8174 6.24616 22.3709 5.1094C24.163 3.70047 26.3154 2.82419 28.5819 2.58072C30.8485 2.33726 33.1378 2.73642 35.1883 3.7326C37.2387 4.72877 38.9675 6.28176 40.177 8.21404C41.3865 10.1463 42.028 12.3799 42.028 14.6595V14.6629Z" fill="#F79E1B"/>
</svg>
