<svg width="46" height="30" viewBox="0 0 46 30" fill="none" xmlns="http://www.w3.org/2000/svg">
<g clip-path="url(#clip0_2030_1302)">
<path d="M45.3179 29.0561H0V0.268799H45.3179V29.0561Z" fill="white"/>
<path d="M0.754883 24.3782H44.5621V28.3061H0.754883V24.3782Z" fill="#F7B600"/>
<path d="M0.754883 4.95138H44.5621V1.02368H0.754883V4.95138Z" fill="#1A1F71"/>
<path d="M21.7878 8.49791L19.5924 18.761H16.9371L19.1325 8.49791H21.7878ZM32.9579 15.1248L34.356 11.2707L35.1592 15.1248H32.9579ZM35.9218 18.7608H38.3766L36.2319 8.49791H33.9669C33.456 8.49791 33.0267 8.79436 32.836 9.25027L28.8518 18.7608H31.6401L32.1934 17.2279H35.6L35.9218 18.761V18.7608ZM28.9905 15.4102C29.0016 12.702 25.2458 12.5518 25.2704 11.3416C25.2794 10.9738 25.6298 10.5821 26.3968 10.482C26.7766 10.433 27.8265 10.3937 29.0152 10.9415L29.4806 8.76373C28.8417 8.53295 28.0197 8.31055 26.9971 8.31055C24.3722 8.31055 22.5257 9.70471 22.511 11.7027C22.4938 13.1806 23.8299 14.0043 24.8346 14.4965C25.8696 14.9992 26.2166 15.3223 26.2118 15.7715C26.2044 16.46 25.3852 16.7649 24.6236 16.7762C23.2884 16.7972 22.5142 16.4154 21.8967 16.1277L21.4148 18.3775C22.0358 18.6622 23.1809 18.9095 24.3668 18.9221C27.1572 18.9221 28.9823 17.5437 28.9905 15.41V15.4102ZM17.9935 8.49791L13.6916 18.761H10.8846L8.76747 10.5702C8.63928 10.0666 8.52766 9.88158 8.13701 9.66883C7.49857 9.32203 6.44429 8.99746 5.51758 8.79584L5.5801 8.49791H10.0987C10.6736 8.49791 11.1916 8.88081 11.3231 9.54379L12.4418 15.4832L15.2035 8.49791H17.9933H17.9935Z" fill="#1A1F71"/>
</g>
<defs>
<clipPath id="clip0_2030_1302">
<rect width="45.3179" height="28.7873" fill="white" transform="translate(0 0.268799)"/>
</clipPath>
</defs>
</svg>
