<svg width="158" height="42" viewBox="0 0 158 42" fill="none" xmlns="http://www.w3.org/2000/svg">
<g clip-path="url(#clip0_1_139)">
<mask id="mask0_1_139" style="mask-type:luminance" maskUnits="userSpaceOnUse" x="0" y="0" width="46" height="42">
<path d="M45.3471 0.0493469H0.0296021V41.9507H45.3471V0.0493469Z" fill="white"/>
</mask>
<g mask="url(#mask0_1_139)">
<path fill-rule="evenodd" clip-rule="evenodd" d="M17.6111 31.5576L32.4978 16.6586C33.7466 15.4088 35.6855 15.4088 36.8686 16.6586L41.9294 21.7236C43.1782 22.9734 43.1782 24.9139 41.9294 26.0979L27.0426 41.0626C25.7939 42.3124 23.855 42.3124 22.6719 41.0626L17.6111 35.9976C16.3623 34.7478 16.3623 32.8074 17.6111 31.5576Z" fill="#5426FF"/>
<path fill-rule="evenodd" clip-rule="evenodd" d="M17.6111 31.5576L32.4978 16.6586C33.7466 15.4088 35.6855 15.4088 36.8686 16.6586L41.9294 21.7236C43.1782 22.9734 43.1782 24.9139 41.9294 26.0979L27.0426 41.0626C25.7939 42.3124 23.855 42.3124 22.6719 41.0626L17.6111 35.9976C16.3623 34.7478 16.3623 32.8074 17.6111 31.5576Z" fill="#5426FF"/>
<path opacity="0.5" fill-rule="evenodd" clip-rule="evenodd" d="M34.9625 26.8543C36.2113 25.6045 36.2113 23.664 34.9625 22.48L30.8218 18.3359L17.6111 31.5575C16.3623 32.8074 16.3623 34.7478 17.6111 35.9319L21.7518 40.076L34.9625 26.8543Z" fill="#4911D4"/>
<path fill-rule="evenodd" clip-rule="evenodd" d="M2.46149 15.2772L16.7238 0.937353C17.9726 -0.312451 19.9115 -0.312451 21.0946 0.937353L26.1554 6.00235C27.4042 7.25215 27.4042 9.19264 26.1554 10.3767L11.8602 24.6836C10.6114 25.9334 8.67251 25.9334 7.48946 24.6836L2.46149 19.6515C1.21271 18.4675 1.21271 16.4612 2.46149 15.2772Z" fill="#5426FF"/>
<path opacity="0.5" fill-rule="evenodd" clip-rule="evenodd" d="M26.1882 10.4424C27.437 9.19263 27.437 7.25215 26.1882 6.06812L22.3762 2.25293L9.36261 15.2772C8.11383 16.527 8.11383 18.4675 9.36261 19.6515L13.1747 23.4338L26.1882 10.4424Z" fill="#4911D4"/>
<path fill-rule="evenodd" clip-rule="evenodd" d="M44.0326 12.9092L40.0891 13.5998C39.399 13.7314 38.7746 13.5341 38.2817 13.0407L30.0332 4.78544C28.2257 2.97651 25.2024 2.97651 23.3949 4.78544L0.161081 28.0055C-0.200408 28.3673 0.0953556 28.8277 0.588294 28.7619L4.89329 28.0713C5.51768 28.0055 6.14207 28.137 6.56928 28.6304L14.7192 36.787C16.7895 38.859 19.4843 38.7275 21.5546 36.5897L44.4598 13.6656C44.7885 13.3367 44.4598 12.7776 44.0326 12.9092ZM30.6904 17.4808L20.1087 28.0713C19.0571 29.1237 17.3482 29.1237 16.2966 28.0713L14.0291 25.8019C13.6676 25.4401 13.6019 24.8481 14.0291 24.4205L24.808 13.6327C25.6953 12.7447 27.2398 12.7447 28.1271 13.6327L30.6904 16.1981C31.019 16.527 31.019 17.1519 30.6904 17.4808Z" fill="#CD40A7"/>
<path fill-rule="evenodd" clip-rule="evenodd" d="M32.2678 25.8677L30.5261 23.9272L23.5921 24.5521L20.0758 28.0713C19.0242 29.1237 17.3153 29.1237 16.2637 28.0713L19.8129 31.6233C21.8832 33.6954 24.578 33.5638 26.6483 31.426L32.2678 25.8677Z" fill="url(#paint0_linear_1_139)"/>
<path fill-rule="evenodd" clip-rule="evenodd" d="M18.0054 10.1464L11.0386 17.1519C13.5361 18.8951 16.2966 20.8356 16.2966 20.8356C16.2966 20.8356 16.428 21.1973 16.6581 21.6578L24.808 13.5012C25.6953 12.6132 27.2398 12.6132 28.1271 13.5012L24.7423 10.0807C22.8691 8.27174 19.8786 8.27174 18.0054 10.1464Z" fill="url(#paint1_linear_1_139)"/>
</g>
<path d="M76.7308 23.0392V18.007H79.9842L84.4864 23.0392H86.6553L81.3645 17.1519L86.6553 11.3633H84.4864L79.9842 16.3955H76.7308V8.27173H75.0877V23.0392H76.7308Z" fill="white"/>
<path d="M155.568 11.3633H147.813V8.27173H146.104V23.0392H155.568C156.193 23.0392 156.85 22.8418 157.277 22.3485C157.77 21.8551 157.967 21.296 157.967 20.6382V13.863C157.967 13.2381 157.77 12.5803 157.277 12.1527C156.85 11.5936 156.193 11.3633 155.568 11.3633ZM156.357 20.6382C156.357 20.8356 156.291 21.0658 156.16 21.1973C156.028 21.3289 155.798 21.3947 155.601 21.3947H148.634C148.437 21.3947 148.207 21.3289 148.076 21.1973C147.944 21.0658 147.878 20.8356 147.878 20.6382V13.863C147.878 13.6656 147.944 13.4354 148.076 13.3038C148.207 13.1723 148.437 13.1065 148.634 13.1065H155.601C155.798 13.1065 156.028 13.1723 156.16 13.3038C156.291 13.4354 156.357 13.6656 156.357 13.863V20.6382Z" fill="white"/>
<path d="M89.843 8.27173H88.2327V9.19264H89.843V8.27173Z" fill="white"/>
<path d="M61.0554 23.0392H70.717C71.3414 23.0392 71.9986 22.8418 72.4258 22.3485C72.9188 21.8551 73.1159 21.296 73.1159 20.6382V17.3822C73.1159 16.7573 72.9188 16.0995 72.4258 15.6719C71.9329 15.1786 71.3742 14.9812 70.717 14.9812H61.0554C60.8582 14.9812 60.6282 14.9154 60.4967 14.7839C60.3653 14.6523 60.2995 14.4221 60.2995 14.2248V10.9687C60.2995 10.7714 60.3653 10.5411 60.4967 10.4096C60.6282 10.278 60.8582 10.2122 61.0554 10.2122H70.717C70.9141 10.2122 71.1442 10.278 71.2756 10.4096C71.4071 10.5411 71.4728 10.7714 71.4728 10.9687V11.5278H73.0831V10.9687C73.0831 10.3438 72.8859 9.68599 72.393 9.25843C71.9 8.76509 71.3414 8.56775 70.6841 8.56775H61.0225C60.3324 8.56775 59.7409 8.76509 59.3137 9.25843C58.8207 9.75177 58.6235 10.3109 58.6235 10.9687V14.1919C58.6235 14.8825 58.8207 15.4746 59.3137 15.9021C59.8066 16.3955 60.3653 16.5928 61.0225 16.5928H70.6841C70.8813 16.5928 71.1113 16.6586 71.2428 16.7901C71.3742 16.9217 71.4399 17.1519 71.4399 17.3493V20.6053C71.4399 20.8027 71.3742 21.0329 71.2428 21.1645C71.1113 21.296 70.8813 21.3618 70.6841 21.3618H61.0225C60.8253 21.3618 60.5953 21.296 60.4638 21.1645C60.3324 21.0329 60.2667 20.8027 60.2667 20.6053V20.0462H58.6564V20.6053C58.6564 21.296 58.8536 21.888 59.3465 22.3156C59.8723 22.8089 60.431 23.0392 61.0554 23.0392Z" fill="white"/>
<path d="M89.843 11.3633H88.2327V23.0063H89.843V11.3633Z" fill="white"/>
<path d="M142.522 20.6382C142.522 20.8355 142.456 21.0658 142.325 21.1973C142.193 21.3289 141.963 21.3947 141.766 21.3947H134.766C134.569 21.3947 134.339 21.3289 134.207 21.1973C134.076 21.0658 134.01 20.8355 134.01 20.6382V11.3633H132.4V20.6053C132.4 21.2302 132.597 21.888 133.09 22.3156C133.583 22.8089 134.142 23.0063 134.799 23.0063H141.766C142.456 23.0063 143.047 22.8089 143.54 22.3156C144.033 21.8222 144.231 21.2631 144.231 20.6053V11.3633H142.62V20.6053H142.522V20.6382Z" fill="white"/>
<path d="M126.879 22.3156C127.372 22.8089 127.931 23.0063 128.588 23.0063H130.56V21.3947H128.588C128.391 21.3947 128.161 21.3289 128.029 21.1973C127.898 21.0658 127.832 20.8355 127.832 20.6382V8.27173H126.222V20.6382C126.156 21.2631 126.386 21.8222 126.879 22.3156Z" fill="white"/>
<path d="M110.514 9.25843C110.021 9.75177 109.823 10.3109 109.823 10.9687V20.5724C109.823 21.2631 110.021 21.8551 110.514 22.2827C111.006 22.776 111.565 22.9734 112.222 22.9734H124.217V21.3618H112.222C112.025 21.3618 111.795 21.296 111.664 21.1645C111.532 21.0329 111.467 20.8027 111.467 20.6053V10.9687C111.467 10.7713 111.532 10.5411 111.664 10.4096C111.795 10.278 112.025 10.2122 112.222 10.2122H124.217V8.60063H112.222C111.565 8.56774 111.006 8.83086 110.514 9.25843Z" fill="white"/>
<path d="M101.542 11.3633H92.0776V23.0063H93.6879V13.7643C93.6879 13.5669 93.7536 13.3367 93.8851 13.2052C94.0165 13.0736 94.2466 13.0078 94.4437 13.0078H101.411C101.608 13.0078 101.838 13.0736 101.969 13.2052C102.101 13.3367 102.166 13.5669 102.166 13.7643V23.0063H103.777V13.7643C103.777 13.1394 103.58 12.4816 103.087 12.054C102.692 11.6593 102.199 11.3633 101.542 11.3633Z" fill="white"/>
<path d="M107.523 21.3947H105.913V23.0063H107.523V21.3947Z" fill="white"/>
<path d="M103.974 29.7157C103.908 29.7157 103.842 29.7815 103.842 29.8473V32.8731C103.842 32.9389 103.908 33.0047 103.974 33.0047H107.819V33.7283H103.974C103.514 33.7283 103.12 33.3336 103.12 32.8731V29.8473C103.12 29.3868 103.514 28.9922 103.974 28.9922H107.819V29.7157H103.974Z" fill="white"/>
<path d="M111.467 29.9131C111.927 29.9131 112.321 30.3078 112.321 30.7682V32.8731C112.321 33.3336 111.927 33.7283 111.467 33.7283H109.298C108.838 33.7283 108.443 33.3336 108.443 32.8731V30.7682C108.443 30.3078 108.838 29.9131 109.298 29.9131H111.467ZM109.298 30.6367C109.232 30.6367 109.166 30.7024 109.166 30.7682V32.8731C109.166 32.9389 109.232 33.0047 109.298 33.0047H111.467C111.532 33.0047 111.598 32.9389 111.598 32.8731V30.7682C111.598 30.7024 111.532 30.6367 111.467 30.6367H109.298Z" fill="white"/>
<path d="M116.757 29.9131V32.8731C116.757 33.3336 116.363 33.7283 115.903 33.7283H113.734C113.274 33.7283 112.88 33.3336 112.88 32.8731V29.9131H113.603V32.8731C113.603 32.9389 113.668 33.0047 113.734 33.0047H115.903C115.969 33.0047 116.034 32.9389 116.034 32.8731V29.9131H116.757Z" fill="white"/>
<path d="M121.325 30.7682V33.7283H120.602V30.7682C120.602 30.7024 120.537 30.6366 120.471 30.6366H118.302C118.236 30.6366 118.171 30.7024 118.171 30.7682V33.7283H117.448V29.9459H120.471C120.931 29.9131 121.325 30.3077 121.325 30.7682Z" fill="white"/>
<path d="M122.706 30.6366V32.8731C122.706 32.9389 122.771 33.0047 122.837 33.0047H124.25V33.7283H122.837C122.377 33.7283 121.983 33.3336 121.983 32.8731V28.6633H122.706V29.9131H124.25V30.6366H122.706Z" fill="white"/>
<path d="M128.522 30.7682V32.1825H125.367V32.8731C125.367 32.9389 125.433 33.0047 125.499 33.0047H128.522V33.7283H125.499C125.039 33.7283 124.644 33.3336 124.644 32.8731V30.7682C124.644 30.3078 125.039 29.9131 125.499 29.9131H127.668C128.161 29.9131 128.522 30.3078 128.522 30.7682ZM127.832 31.4589V30.7682C127.832 30.7024 127.766 30.6367 127.701 30.6367H125.532C125.466 30.6367 125.4 30.7024 125.4 30.7682V31.4589H127.832Z" fill="white"/>
<path d="M132.039 29.9131V30.6367H129.902C129.837 30.6367 129.771 30.7024 129.771 30.7682V33.7283H129.048V30.7682C129.048 30.3078 129.442 29.9131 129.902 29.9131H132.039Z" fill="white"/>
<path d="M135.095 31.426H132.466V32.1496H135.095V31.426Z" fill="white"/>
<path d="M140.517 30.1433H139.794V29.8802C139.794 29.8144 139.728 29.7486 139.663 29.7486H136.639C136.574 29.7486 136.508 29.8144 136.508 29.8802V30.8998C136.508 30.9655 136.574 31.0313 136.639 31.0313H139.663C140.123 31.0313 140.517 31.426 140.517 31.8864V32.906C140.517 33.3665 140.123 33.7611 139.663 33.7611H136.639C136.179 33.7611 135.785 33.3665 135.785 32.906V32.61H136.508V32.8731C136.508 32.9389 136.574 33.0047 136.639 33.0047H139.663C139.728 33.0047 139.794 32.9389 139.794 32.8731V31.8535C139.794 31.7878 139.728 31.722 139.663 31.722H136.639C136.179 31.722 135.785 31.3273 135.785 30.8669V29.8473C135.785 29.3868 136.179 28.9922 136.639 28.9922H139.663C140.123 28.9922 140.517 29.3868 140.517 29.8473V30.1433Z" fill="white"/>
<path d="M141.897 30.6366V32.8731C141.897 32.9389 141.963 33.0047 142.029 33.0047H143.442V33.7283H142.029C141.569 33.7283 141.174 33.3336 141.174 32.8731V28.6633H141.897V29.9131H143.442V30.6366H141.897Z" fill="white"/>
<path d="M146.827 29.9131V30.6367H144.691C144.625 30.6367 144.559 30.7024 144.559 30.7682V33.7283H143.836V30.7682C143.836 30.3078 144.231 29.9131 144.691 29.9131H146.827Z" fill="white"/>
<path d="M147.911 28.6962V29.4197H147.188V28.6962H147.911ZM147.221 29.9131H147.944V33.6954H147.221V29.9131Z" fill="white"/>
<path d="M152.413 29.9131V30.0118L150.77 31.8207L152.413 33.6296V33.7283H151.559L150.146 32.1825H149.291V33.7283H148.601V28.6962H149.291V31.4589H150.146L151.559 29.9131H152.413Z" fill="white"/>
<path d="M156.488 30.7682V32.1825H153.333V32.8731C153.333 32.9389 153.399 33.0047 153.465 33.0047H156.488V33.7283H153.498C153.038 33.7283 152.643 33.3336 152.643 32.8731V30.7682C152.643 30.3078 153.038 29.9131 153.498 29.9131H155.667C156.127 29.9131 156.488 30.3078 156.488 30.7682ZM155.798 31.4589V30.7682C155.798 30.7024 155.732 30.6367 155.667 30.6367H153.498C153.432 30.6367 153.366 30.7024 153.366 30.7682V31.4589H155.798Z" fill="white"/>
<path d="M67.0692 29.9131V30.6367H64.9332C64.8674 30.6367 64.8017 30.7024 64.8017 30.7682V33.7283H64.0787V30.7682C64.0787 30.3078 64.4731 29.9131 64.9332 29.9131H67.0692Z" fill="white"/>
<path d="M68.1537 28.6962V29.4197H67.4307V28.6962H68.1537ZM67.4307 29.9131H68.1537V33.6954H67.4307V29.9131Z" fill="white"/>
<path d="M73.4775 29.9131L71.4071 33.7283H70.6841L68.5809 29.9131H69.4025L71.0456 32.9389L72.6888 29.9131H73.4775Z" fill="white"/>
<path d="M77.4209 30.7682V32.1825H74.2661V32.8731C74.2661 32.9389 74.3319 33.0047 74.3976 33.0047H77.4209V33.7283H74.3976C73.9375 33.7283 73.5432 33.3336 73.5432 32.8731V30.7682C73.5432 30.3078 73.9375 29.9131 74.3976 29.9131H76.5665C77.0266 29.9131 77.4209 30.3078 77.4209 30.7682ZM76.698 31.4589V30.7682C76.698 30.7024 76.6322 30.6367 76.5665 30.6367H74.3976C74.3319 30.6367 74.2661 30.7024 74.2661 30.7682V31.4589H76.698Z" fill="white"/>
<path d="M78.8341 33.0047H78.1111V33.7283H78.8341V33.0047Z" fill="white"/>
<path d="M158 33.0047H157.277V33.7283H158V33.0047Z" fill="white"/>
<path d="M81.3316 28.9922H82.0217V33.0047H86.031V33.7283H81.3316V28.9922Z" fill="white"/>
<path d="M89.3829 29.9131C89.843 29.9131 90.2373 30.3078 90.2373 30.7682V32.8731C90.2373 33.3336 89.843 33.7283 89.3829 33.7283H87.214C86.7539 33.7283 86.3596 33.3336 86.3596 32.8731V30.7682C86.3596 30.3078 86.7539 29.9131 87.214 29.9131H89.3829ZM87.214 30.6367C87.1483 30.6367 87.0825 30.7024 87.0825 30.7682V32.8731C87.0825 32.9389 87.1483 33.0047 87.214 33.0047H89.3829C89.4486 33.0047 89.5144 32.9389 89.5144 32.8731V30.7682C89.5144 30.7024 89.4486 30.6367 89.3829 30.6367H87.214Z" fill="white"/>
<path d="M95.3639 29.9131L93.2936 33.7283H92.5706L90.4674 29.9131H91.289L92.9321 32.9389L94.5752 29.9131H95.3639Z" fill="white"/>
<path d="M99.3074 30.7682V32.1825H96.1526V32.8731C96.1526 32.9389 96.2183 33.0047 96.284 33.0047H99.3074V33.7283H96.284C95.824 33.7283 95.4296 33.3336 95.4296 32.8731V30.7682C95.4296 30.3078 95.824 29.9131 96.284 29.9131H98.453C98.9131 29.9131 99.3074 30.3078 99.3074 30.7682ZM98.5844 31.4589V30.7682C98.5844 30.7024 98.5187 30.6367 98.453 30.6367H96.284C96.2183 30.6367 96.1526 30.7024 96.1526 30.7682V31.4589H98.5844Z" fill="white"/>
<path d="M100.688 33.0047H99.9647V33.7283H100.688V33.0047Z" fill="white"/>
<path d="M61.8769 29.7486C62.3042 29.7486 62.6656 30.1104 62.6656 30.538V32.2153C62.6656 32.6429 62.3042 33.0047 61.8769 33.0047H59.4122V29.7486H61.8769ZM61.8769 29.0251H58.6893V33.7283H61.8769C62.7314 33.7283 63.3886 33.0376 63.3886 32.2153V30.538C63.3886 29.6828 62.6985 29.0251 61.8769 29.0251Z" fill="white"/>
</g>
<defs>
<linearGradient id="paint0_linear_1_139" x1="7.60116" y1="37.1093" x2="26.2933" y2="27.4458" gradientUnits="userSpaceOnUse">
<stop stop-color="#6311DD"/>
<stop offset="1" stop-color="#6311DD" stop-opacity="0"/>
</linearGradient>
<linearGradient id="paint1_linear_1_139" x1="35.0545" y1="-0.434131" x2="20.0106" y2="14.8636" gradientUnits="userSpaceOnUse">
<stop stop-color="#6311DD"/>
<stop offset="1" stop-color="#6311DD" stop-opacity="0"/>
</linearGradient>
<clipPath id="clip0_1_139">
<rect width="158" height="42" fill="white"/>
</clipPath>
</defs>
</svg>
